<?xml version="1.0" standalone="no"?>
<!DOCTYPE svg PUBLIC "-//W3C//DTD SVG 20010904//EN"
 "http://www.w3.org/TR/2001/REC-SVG-20010904/DTD/svg10.dtd">
<svg version="1.0" xmlns="http://www.w3.org/2000/svg"
 width="1024.000000pt" height="1024.000000pt" viewBox="0 0 1024.000000 1024.000000"
 preserveAspectRatio="xMidYMid meet">

<g transform="translate(0.000000,1024.000000) scale(0.100000,-0.100000)"
fill="#000000" stroke="none">
<path d="M5074 8666 c-18 -13 -19 -30 -22 -232 -2 -120 -1 -228 3 -241 13 -52
99 -62 124 -14 7 12 11 103 11 238 0 207 -1 220 -20 241 -24 25 -67 29 -96 8z"/>
<path d="M4042 8404 c-7 -3 -19 -19 -27 -35 -14 -26 -14 -32 1 -61 40 -80 189
-335 207 -355 24 -27 68 -30 91 -8 28 29 28 52 -3 112 -24 47 -159 284 -189
330 -9 14 -61 25 -80 17z"/>
<path d="M6127 8398 c-9 -7 -64 -100 -122 -206 -115 -207 -120 -225 -70 -258
35 -23 70 -11 98 34 72 113 197 356 197 382 0 48 -63 78 -103 48z"/>
<path d="M4905 7984 c-392 -61 -751 -292 -977 -628 -141 -211 -215 -420 -239
-673 -41 -438 130 -870 465 -1174 71 -64 186 -198 224 -261 46 -77 71 -154 87
-274 17 -120 37 -165 93 -216 74 -67 42 -63 562 -62 524 1 503 -2 569 65 49
48 70 100 87 211 32 219 77 296 313 541 93 97 189 204 214 239 177 250 271
579 253 887 -20 348 -149 644 -393 901 -143 150 -266 240 -453 329 -241 115
-535 157 -805 115z m347 -118 c167 -9 399 -88 553 -188 504 -325 736 -891 589
-1438 -68 -256 -185 -443 -419 -670 -209 -202 -305 -370 -321 -561 -3 -41 -15
-92 -25 -114 -36 -77 -23 -75 -509 -75 -360 0 -436 2 -459 15 -37 19 -71 89
-71 147 0 65 -33 185 -73 264 -52 103 -111 177 -279 351 -242 250 -330 394
-393 643 -166 655 201 1330 850 1563 122 44 342 79 440 70 17 -1 69 -4 117 -7z"/>
<path d="M5075 6994 c-153 -80 -436 -237 -440 -245 -4 -5 25 -9 67 -9 65 0 74
2 83 21 9 19 310 189 335 189 5 0 82 -39 170 -86 120 -65 160 -91 160 -105 0
-17 8 -19 80 -19 44 0 80 3 80 8 0 4 -30 23 -68 43 -37 19 -145 77 -239 127
-95 51 -178 92 -185 92 -7 -1 -26 -8 -43 -16z"/>
<path d="M5074 6835 c-20 -31 -10 -63 23 -76 55 -21 98 46 55 84 -27 24 -59
21 -78 -8z"/>
<path d="M4906 6789 c-44 -35 -34 -49 34 -49 33 0 60 3 60 6 0 14 -42 64 -54
64 -7 0 -25 -9 -40 -21z"/>
<path d="M5261 6784 c-12 -15 -21 -31 -21 -35 0 -5 25 -9 55 -9 54 0 66 9 47
36 -7 11 -45 34 -56 34 -2 0 -14 -12 -25 -26z"/>
<path d="M4690 6655 l0 -25 430 0 430 0 0 25 0 25 -430 0 -430 0 0 -25z"/>
<path d="M4570 6531 c0 -61 3 -70 20 -76 33 -10 40 3 40 76 l0 69 -30 0 -30 0
0 -69z"/>
<path d="M5610 6530 l0 -70 30 0 30 0 0 70 0 70 -30 0 -30 0 0 -70z"/>
<path d="M4760 6335 l0 -255 30 0 30 0 0 255 0 255 -30 0 -30 0 0 -255z"/>
<path d="M4920 6336 l0 -256 30 0 c39 0 41 15 38 285 l-3 220 -32 3 -33 3 0
-255z"/>
<path d="M5087 6573 c-2 -10 -4 -126 -3 -258 l1 -240 30 0 30 0 3 258 2 257
-29 0 c-20 0 -31 -6 -34 -17z"/>
<path d="M5250 6335 l0 -255 28 0 29 0 7 238 c3 132 4 246 0 255 -4 11 -17 17
-35 17 l-29 0 0 -255z"/>
<path d="M5416 6568 c-3 -13 -6 -128 -6 -255 l0 -233 35 0 35 0 0 255 0 255
-29 0 c-21 0 -30 -6 -35 -22z"/>
<path d="M4570 6200 l0 -190 30 0 30 0 0 190 0 190 -30 0 -30 0 0 -190z"/>
<path d="M5610 6200 l0 -190 30 0 30 0 0 190 0 190 -30 0 -30 0 0 -190z"/>
<path d="M4680 5980 l0 -30 440 0 440 0 0 30 0 30 -440 0 -440 0 0 -30z"/>
<path d="M4480 5850 l0 -30 640 0 640 0 0 30 0 30 -640 0 -640 0 0 -30z"/>
<path d="M4310 5720 l0 -30 813 2 812 3 3 28 3 27 -815 0 -816 0 0 -30z"/>
<path d="M3302 7650 c-12 -5 -27 -20 -33 -34 -25 -53 -11 -66 206 -200 183
-113 209 -126 233 -118 15 4 33 21 41 37 24 49 2 70 -213 203 -110 67 -202
122 -205 121 -3 0 -16 -4 -29 -9z"/>
<path d="M6780 7584 c-58 -36 -147 -91 -198 -121 -98 -59 -115 -82 -93 -129 6
-13 23 -29 37 -34 31 -12 59 2 289 147 156 99 180 125 155 171 -12 20 -24 28
-50 30 -28 2 -55 -10 -140 -64z"/>
<path d="M2985 6560 c-9 -10 -17 -31 -17 -45 0 -14 8 -35 17 -45 17 -19 32
-20 254 -20 266 0 281 3 281 64 0 64 -9 66 -277 66 -226 0 -241 -1 -258 -20z"/>
<path d="M6736 6558 c-22 -31 -20 -64 4 -88 19 -19 33 -20 253 -20 262 0 277
3 277 64 0 64 -9 66 -278 66 -238 0 -241 0 -256 -22z"/>
<path d="M3524 5664 c-76 -48 -165 -102 -197 -122 -64 -39 -79 -69 -56 -111 8
-14 26 -30 40 -35 23 -8 49 5 215 109 104 65 197 125 207 133 38 33 6 112 -46
112 -13 0 -86 -39 -163 -86z"/>
<path d="M6500 5723 c-24 -30 -20 -69 8 -91 9 -7 103 -65 208 -128 172 -103
194 -113 218 -104 14 5 31 21 37 34 25 53 11 67 -200 195 -116 71 -209 121
-224 121 -16 0 -34 -10 -47 -27z"/>
<path d="M4592 4554 c-31 -22 -29 -67 4 -93 26 -21 36 -21 526 -21 l499 0 24
25 c30 29 32 58 5 85 -19 19 -33 20 -528 20 -443 0 -510 -2 -530 -16z"/>
<path d="M4586 4298 c-22 -32 -20 -55 9 -83 l24 -25 501 0 501 0 24 25 c14 13
25 29 25 35 0 16 -21 53 -34 62 -6 4 -241 8 -523 8 l-512 0 -15 -22z"/>
<path d="M4766 4055 c-26 -27 -29 -56 -8 -84 l19 -26 337 -3 337 -2 24 24 c30
30 32 59 5 86 -19 19 -33 20 -359 20 -289 0 -342 -2 -355 -15z"/>
<path d="M6492 3740 c-18 -29 -15 -36 8 -15 20 18 26 35 12 35 -4 0 -13 -9
-20 -20z"/>
<path d="M3000 3677 c-37 -19 -39 -68 -4 -96 15 -11 34 -21 44 -21 40 0 80
-22 80 -44 0 -32 -19 -46 -64 -46 -27 0 -47 7 -63 22 -24 23 -40 19 -29 -7 12
-32 101 -46 151 -23 60 27 36 101 -37 113 -110 18 -121 95 -14 95 19 0 42 -7
51 -16 9 -9 19 -13 23 -9 4 4 -4 15 -17 26 -27 22 -84 25 -121 6z"/>
<path d="M3220 3570 c0 -73 4 -120 10 -120 6 0 10 47 10 120 0 73 -4 120 -10
120 -6 0 -10 -47 -10 -120z"/>
<path d="M3340 3677 c-37 -19 -39 -68 -4 -96 15 -11 38 -21 51 -21 38 0 82
-28 83 -52 0 -4 -7 -14 -16 -22 -22 -22 -86 -20 -116 4 -24 18 -38 18 -38 -1
0 -16 60 -39 102 -39 56 0 88 22 88 60 0 34 -28 57 -80 66 -103 18 -109 94 -7
94 19 0 40 -7 47 -15 15 -19 30 -19 30 -2 0 32 -92 48 -140 24z"/>
<path d="M3520 3680 c0 -5 20 -10 45 -10 l45 0 0 -110 c0 -67 4 -110 10 -110
6 0 10 43 10 110 l0 110 45 0 c25 0 45 5 45 10 0 6 -40 10 -100 10 -60 0 -100
-4 -100 -10z"/>
<path d="M3775 3668 c-3 -13 -5 -66 -3 -118 l3 -95 93 -3 c63 -2 92 1 87 8 -3
5 -40 10 -81 10 l-74 0 0 45 0 45 60 0 c33 0 60 4 60 10 0 6 -27 10 -60 10
l-60 0 0 45 0 45 75 0 c43 0 75 4 75 10 0 6 -35 10 -85 10 -79 0 -85 -1 -90
-22z"/>
<path d="M4005 3680 c-9 -14 3 -225 12 -223 4 2 10 41 13 89 l5 85 43 -85 c24
-47 48 -86 55 -86 7 0 33 42 57 93 l45 92 3 -97 c4 -141 22 -123 22 22 0 152
-11 155 -74 25 -25 -52 -49 -95 -53 -95 -5 0 -30 43 -56 95 -45 91 -58 107
-72 85z"/>
<path d="M4365 3578 c-30 -62 -55 -116 -55 -120 0 -19 21 -5 35 22 15 29 18
30 84 30 67 0 69 -1 81 -30 12 -30 30 -41 29 -17 0 23 -94 220 -107 225 -7 2
-33 -39 -67 -110z m93 19 c12 -29 22 -56 22 -60 0 -4 -25 -7 -55 -7 -30 0 -55
2 -55 4 0 12 53 116 59 116 4 0 17 -24 29 -53z"/>
<path d="M4694 3677 c-2 -7 -3 -60 -2 -118 l3 -104 55 -3 c76 -3 121 20 139
73 19 57 2 119 -42 145 -38 24 -144 28 -153 7z m137 -20 c25 -19 39 -53 39
-95 0 -53 -33 -83 -100 -90 l-50 -5 0 102 0 101 48 0 c26 0 54 -6 63 -13z"/>
<path d="M4952 3573 l3 -118 88 -3 c55 -2 87 1 87 8 0 6 -30 10 -75 10 l-75 0
0 45 0 45 60 0 c33 0 60 4 60 10 0 6 -26 10 -59 10 l-59 0 -4 41 c-2 22 -2 42
1 45 2 2 35 4 73 4 39 0 68 4 68 10 0 6 -35 10 -85 10 l-86 0 3 -117z"/>
<path d="M5334 3671 c-63 -38 -70 -129 -15 -185 24 -23 40 -30 85 -34 51 -4
57 -2 86 26 20 21 30 40 30 61 l0 31 -65 0 c-37 0 -65 -4 -65 -10 0 -5 22 -10
48 -10 27 0 51 -3 55 -6 9 -10 -20 -61 -38 -68 -88 -33 -179 52 -145 135 25
59 112 78 156 34 30 -30 49 -33 34 -5 -26 48 -112 64 -166 31z"/>
<path d="M5580 3570 l0 -120 90 0 c53 0 90 4 90 10 0 6 -33 10 -80 10 l-80 0
0 45 0 45 65 0 c37 0 65 4 65 10 0 6 -28 10 -65 10 l-65 0 0 45 0 45 75 0 c43
0 75 4 75 10 0 6 -35 10 -85 10 l-85 0 0 -120z"/>
<path d="M5832 3678 c-26 -13 -39 -54 -25 -77 12 -20 45 -36 99 -50 49 -13 62
-36 37 -63 -14 -16 -27 -19 -61 -15 -23 2 -51 12 -61 21 -19 17 -36 9 -23 -10
23 -35 121 -46 160 -18 17 12 22 24 20 47 -3 34 -21 47 -97 69 -56 17 -72 39
-47 67 23 25 73 28 102 6 24 -18 34 -19 34 -2 0 31 -91 47 -138 25z"/>
<path d="M6010 3680 c0 -5 20 -10 45 -10 l45 0 0 -110 c0 -67 4 -110 10 -110
6 0 10 43 10 110 l0 110 45 0 c25 0 45 5 45 10 0 6 -40 10 -100 10 -60 0 -100
-4 -100 -10z"/>
<path d="M6270 3570 c0 -73 4 -120 10 -120 6 0 10 47 10 120 0 73 -4 120 -10
120 -6 0 -10 -47 -10 -120z"/>
<path d="M6424 3674 c-82 -40 -85 -167 -4 -209 115 -60 236 55 170 162 -35 58
-104 78 -166 47z m100 -14 c32 -12 59 -54 59 -91 0 -90 -97 -131 -165 -70 -27
24 -33 36 -33 71 0 35 6 47 33 71 34 30 63 36 106 19z"/>
<path d="M6670 3570 c0 -73 4 -120 10 -120 6 0 10 39 10 96 0 114 -1 114 92
-12 34 -46 68 -84 75 -84 11 0 13 25 11 115 -4 138 -23 159 -23 25 0 -50 -3
-90 -6 -90 -4 0 -39 43 -78 95 -39 52 -76 95 -81 95 -6 0 -10 -48 -10 -120z"/>
<path d="M7301 3413 l-31 -48 26 -3 c20 -3 37 7 70 39 24 24 44 47 44 51 0 4
-17 8 -39 8 -35 0 -41 -4 -70 -47z"/>
<path d="M3543 3322 c-8 -5 -14 -66 -19 -189 l-7 -182 25 -6 c14 -4 39 -5 54
-3 28 3 29 6 32 59 l3 56 63 5 c103 9 136 42 136 139 0 89 -64 129 -205 129
-38 0 -75 -4 -82 -8z m170 -103 c17 -28 0 -67 -33 -74 -41 -9 -50 0 -50 51 l0
45 36 -3 c21 -2 41 -10 47 -19z"/>
<path d="M3883 3323 c-10 -3 -13 -52 -13 -194 l0 -190 53 3 52 3 3 58 c4 73
17 72 69 -3 35 -49 43 -55 78 -58 70 -4 73 8 26 79 -27 40 -38 65 -30 68 23 7
48 40 57 75 21 74 -20 146 -91 160 -35 7 -187 7 -204 -1z m188 -104 c8 -16 8
-28 0 -45 -9 -20 -18 -24 -51 -24 l-40 0 0 45 0 45 40 0 c30 0 42 -5 51 -21z"/>
<path d="M4323 3323 l-83 -4 -1 -142 c-2 -147 -2 -217 0 -229 1 -5 57 -8 126
-8 114 0 125 2 135 20 6 11 8 31 4 44 -6 24 -10 25 -82 28 l-77 3 0 30 0 30
68 3 67 3 0 39 0 40 -70 0 -70 0 0 30 0 30 80 0 80 0 0 40 c0 37 -2 40 -27 40
-16 0 -37 2 -48 3 -11 2 -57 2 -102 0z"/>
<path d="M4570 3320 c-5 -3 -10 -88 -11 -190 l-3 -185 23 -3 c13 -2 39 -1 57
3 l34 6 -6 54 -7 55 52 0 c104 0 155 44 155 134 0 59 -22 99 -62 115 -28 10
-218 20 -232 11z m181 -101 c8 -16 8 -28 0 -45 -9 -20 -18 -24 -51 -24 -40 0
-40 0 -40 38 0 47 4 52 46 52 24 0 37 -6 45 -21z"/>
<path d="M5288 3323 c-16 -4 -18 -22 -18 -194 l0 -189 43 0 c55 0 67 13 67 72
0 66 18 62 64 -12 l37 -60 49 0 c27 0 52 4 55 10 3 5 -13 38 -36 72 l-42 61
25 21 c80 66 57 189 -40 216 -36 10 -170 12 -204 3z m180 -116 c5 -38 -14 -57
-53 -57 -31 0 -33 2 -37 41 -2 22 -1 42 1 45 3 3 23 4 46 2 36 -3 40 -6 43
-31z"/>
<path d="M5734 3298 c-17 -33 -124 -332 -124 -347 0 -12 78 -15 97 -3 6 4 16
20 22 35 9 24 16 27 53 26 56 -1 76 -9 91 -39 10 -20 21 -26 56 -28 24 -2 48
1 52 5 8 8 -28 121 -97 305 l-25 66 -56 4 c-51 3 -56 1 -69 -24z m85 -156 c7
-24 10 -46 8 -49 -3 -2 -18 -3 -34 -1 l-30 3 15 53 c16 59 23 58 41 -6z"/>
<path d="M6043 3323 c-10 -3 -13 -51 -13 -189 l0 -184 26 -6 c34 -9 184 3 221
17 68 25 103 87 103 182 0 88 -48 154 -128 177 -37 10 -186 13 -209 3z m198
-112 c33 -34 39 -83 14 -130 -16 -33 -33 -41 -81 -41 l-34 0 0 100 0 100 36 0
c26 0 43 -8 65 -29z"/>
<path d="M6447 3322 l-29 -4 4 -136 c3 -108 7 -144 21 -170 53 -97 265 -95
311 3 13 27 16 61 14 172 l-3 138 -29 3 c-15 2 -39 1 -52 -2 -24 -6 -24 -8
-24 -131 0 -112 -2 -127 -20 -145 -27 -27 -56 -25 -85 5 -24 23 -25 30 -25
145 0 89 -3 120 -12 121 -7 0 -20 1 -28 3 -8 1 -28 0 -43 -2z"/>
<path d="M6835 3318 c-3 -7 -4 -95 -3 -193 l3 -180 50 0 50 0 5 58 c3 31 9 58
15 59 5 1 28 -25 50 -58 40 -59 41 -59 90 -59 64 0 67 15 15 83 l-40 53 34 32
c60 57 55 151 -10 194 -37 24 -251 34 -259 11z m193 -90 c7 -7 12 -21 12 -33
0 -31 -19 -45 -62 -45 l-38 0 0 45 0 45 38 0 c21 0 43 -5 50 -12z"/>
<path d="M7236 3321 c-4 -5 -9 -88 -13 -183 -7 -196 -5 -202 64 -196 l38 3 0
190 0 190 -42 3 c-22 2 -44 -1 -47 -7z"/>
<path d="M7889 3307 c-40 -27 -60 -78 -48 -120 16 -57 37 -76 101 -95 50 -14
64 -23 66 -40 5 -30 -36 -38 -94 -18 -53 18 -58 16 -80 -26 -15 -29 -15 -32 1
-44 36 -26 121 -38 180 -25 71 16 105 54 105 115 0 61 -27 92 -98 112 -65 18
-87 35 -78 59 6 17 40 17 106 0 22 -6 28 -2 43 30 21 44 17 51 -31 65 -65 18
-135 13 -173 -13z"/>
<path d="M2745 3309 c-3 -8 -4 -91 -3 -184 l3 -170 85 0 c140 0 191 46 193
173 1 82 -23 138 -71 165 -44 26 -199 37 -207 16z m184 -44 c36 -18 56 -66 55
-135 -1 -102 -43 -142 -147 -144 l-52 -1 -3 148 -3 147 61 0 c34 0 74 -7 89
-15z"/>
<path d="M3114 3305 c-3 -6 -6 -87 -7 -181 l-2 -169 115 0 c96 0 115 3 115 15
0 12 -19 16 -97 18 l-98 3 0 64 0 65 85 0 c68 0 85 3 85 15 0 11 -18 15 -82
17 l-83 3 -3 63 -3 62 95 0 c88 0 120 9 101 28 -12 13 -216 10 -221 -3z"/>
<path d="M4970 3298 c-12 -29 -110 -297 -117 -322 -7 -22 12 -36 52 -36 36 0
47 7 61 39 8 20 18 24 63 26 52 3 58 0 85 -39 10 -15 26 -20 62 -20 44 -1 49
1 46 19 -3 17 -80 240 -114 328 -10 25 -14 27 -69 27 -52 0 -61 -3 -69 -22z
m94 -180 c5 -24 3 -28 -20 -34 -38 -10 -43 5 -26 66 l16 54 12 -29 c6 -17 14
-42 18 -57z"/>
<path d="M7545 3308 c-2 -7 -31 -89 -65 -182 -36 -100 -57 -173 -52 -178 5 -5
29 -8 53 -6 39 3 46 7 58 36 15 34 26 37 94 26 28 -5 42 -14 53 -35 13 -26 20
-29 64 -29 41 0 50 3 50 18 0 9 -28 94 -63 187 l-63 170 -62 3 c-44 2 -64 -1
-67 -10z m83 -157 c16 -53 15 -71 -5 -71 -40 0 -47 15 -33 64 7 25 16 46 20
46 4 0 12 -17 18 -39z"/>
<path d="M2742 2808 c-8 -8 -12 -58 -12 -162 0 -129 3 -155 20 -191 55 -114
260 -121 326 -12 17 28 19 52 19 202 0 163 -1 170 -20 170 -19 0 -20 -8 -25
-162 -4 -144 -7 -165 -26 -190 -45 -61 -146 -68 -207 -13 l-32 28 -5 168 c-5
165 -11 189 -38 162z"/>
<path d="M3232 2812 c-9 -7 -12 -58 -10 -223 3 -206 4 -214 23 -214 19 0 20 8
25 174 l5 174 134 -177 c185 -244 197 -239 188 82 -5 178 -12 207 -42 182 -12
-10 -15 -41 -15 -183 l0 -170 -131 174 c-148 196 -150 198 -177 181z"/>
<path d="M3725 2798 c-3 -13 -4 -113 -3 -223 3 -186 4 -200 22 -203 10 -2 22
2 26 9 8 12 3 403 -5 427 -7 20 -34 14 -40 -10z"/>
<path d="M3862 2807 c-9 -10 9 -58 72 -198 112 -249 107 -239 127 -239 10 0
25 10 33 23 22 34 176 386 176 402 0 24 -21 28 -40 9 -10 -11 -46 -84 -80
-164 -33 -80 -65 -156 -71 -169 -6 -14 -14 -20 -18 -15 -5 5 -39 79 -76 164
-87 203 -97 218 -123 187z"/>
<path d="M4366 2812 c-15 -3 -16 -25 -14 -220 l3 -217 153 -3 c147 -2 152 -2
152 18 0 19 -6 20 -130 20 l-130 0 0 80 0 79 102 3 c88 3 103 6 106 20 3 15
-9 18 -100 20 l-103 3 -3 77 -3 77 128 3 c111 3 128 5 131 20 3 15 -11 17
-136 20 -77 2 -147 2 -156 0z"/>
<path d="M4761 2807 c-8 -10 -11 -75 -9 -223 3 -207 3 -209 25 -212 21 -3 22
1 25 80 l3 83 50 0 49 0 66 -82 c63 -79 94 -99 106 -68 4 9 -16 39 -50 78 -31
36 -56 68 -56 73 0 5 18 16 39 25 49 21 74 58 75 113 1 53 -18 91 -59 116 -42
26 -245 39 -264 17z m228 -52 c33 -17 56 -64 46 -97 -18 -59 -71 -80 -171 -71
l-64 6 0 88 0 89 80 0 c51 0 91 -5 109 -15z"/>
<path d="M5240 2798 c-111 -57 -89 -177 38 -214 146 -42 170 -59 158 -110 -18
-71 -166 -85 -233 -22 -22 20 -25 21 -40 5 -21 -20 -7 -39 51 -70 52 -26 156
-29 203 -4 114 60 94 187 -35 223 -135 37 -162 54 -162 103 0 57 128 83 198
41 36 -22 52 -19 52 10 0 28 -53 52 -125 57 -49 4 -68 0 -105 -19z"/>
<path d="M5597 2813 c-4 -3 -7 -105 -7 -225 l0 -219 23 3 c22 3 22 4 25 217 2
165 -1 216 -10 223 -16 10 -23 10 -31 1z"/>
<path d="M5785 2811 c-44 -4 -60 -10 -60 -21 0 -12 17 -16 77 -18 l78 -3 2
-197 3 -197 25 0 25 0 3 198 2 197 75 0 c76 0 96 10 75 35 -10 12 -38 15 -129
13 -64 -1 -143 -4 -176 -7z"/>
<path d="M6278 2803 c-29 -33 -199 -416 -189 -426 18 -18 43 3 64 53 20 48 22
49 71 55 28 4 85 5 126 3 l75 -3 27 -57 c20 -42 33 -58 47 -58 11 0 22 4 25 8
5 9 -176 406 -196 430 -14 17 -32 15 -50 -5z m77 -167 c25 -55 43 -101 41
-103 -2 -2 -47 -2 -99 -1 l-96 3 47 103 c25 56 50 101 55 99 4 -1 28 -47 52
-101z"/>
<path d="M6602 2812 c-9 -6 -12 -58 -10 -223 3 -211 3 -214 25 -217 28 -4 35
18 31 100 l-3 63 50 3 50 3 54 -71 c58 -76 98 -113 112 -104 19 11 7 38 -46
102 -59 71 -64 82 -39 82 28 0 72 32 90 65 12 23 15 46 12 79 -6 50 -26 79
-71 103 -33 17 -235 29 -255 15z m228 -57 c56 -29 68 -95 24 -138 -31 -31 -75
-41 -147 -33 -28 3 -54 6 -57 6 -3 0 -4 40 -2 90 l3 90 75 0 c47 0 86 -6 104
-15z"/>
<path d="M7312 2794 c-83 -41 -122 -109 -122 -208 1 -129 98 -219 235 -219
203 1 310 228 177 375 -74 82 -189 102 -290 52z m195 -41 c43 -20 88 -80 97
-128 23 -122 -102 -238 -223 -206 -109 29 -162 122 -131 230 28 100 157 152
257 104z"/>
<path d="M7037 2803 c-9 -8 -9 -396 -1 -417 10 -27 42 -19 48 12 3 15 4 106 1
202 -2 96 -4 183 -5 193 0 17 -30 24 -43 10z"/>
<path d="M3816 2249 c-134 -159 -154 -455 -45 -659 43 -81 65 -103 89 -90 28
15 25 36 -14 110 -48 91 -68 177 -68 290 -1 112 21 191 77 281 20 33 35 67 33
77 -6 30 -43 26 -72 -9z"/>
<path d="M6402 2268 c-15 -15 -16 -45 -2 -53 6 -4 23 -32 39 -63 88 -175 83
-372 -15 -549 -39 -71 -42 -88 -14 -103 17 -9 24 -6 44 15 63 67 126 256 126
375 0 111 -47 266 -107 353 -26 38 -50 46 -71 25z"/>
<path d="M4713 2242 c-72 -26 -128 -65 -164 -115 -52 -71 -62 -104 -63 -202
-1 -79 2 -97 27 -147 61 -125 193 -197 338 -185 128 11 219 69 271 174 26 54
32 77 32 137 l1 71 -175 0 -175 0 0 -60 0 -60 80 -3 c44 -1 86 -4 93 -7 21 -8
-26 -62 -73 -85 -54 -26 -110 -25 -165 3 -53 26 -87 72 -95 131 -26 172 160
277 301 170 l46 -35 56 29 c35 19 58 37 60 49 4 26 -75 98 -136 126 -66 29
-190 34 -259 9z"/>
<path d="M4090 2234 c-120 -52 -153 -208 -63 -298 27 -27 58 -43 117 -62 45
-14 91 -32 104 -40 27 -18 29 -55 4 -77 -27 -24 -122 -23 -172 3 -22 11 -45
20 -53 20 -8 0 -26 -23 -41 -51 l-28 -51 22 -23 c34 -36 113 -59 206 -59 67 0
89 4 135 27 106 52 145 168 93 269 -20 40 -80 76 -170 104 -106 32 -135 62
-98 98 22 23 109 20 163 -5 49 -22 47 -23 84 43 l27 47 -20 19 c-52 48 -233
69 -310 36z"/>
<path d="M5236 2234 c-14 -13 -16 -56 -16 -320 l0 -304 80 0 80 0 0 104 0 104
94 4 c83 3 100 7 142 34 71 43 97 97 91 191 -5 82 -26 124 -84 161 -46 31
-114 42 -254 42 -94 0 -121 -3 -133 -16z m292 -150 c60 -67 -17 -151 -118
-129 l-30 7 0 73 c0 73 0 74 28 78 50 8 96 -3 120 -29z"/>
<path d="M5772 2238 c-19 -19 -17 -409 3 -476 33 -109 117 -165 250 -166 68
-1 88 3 137 27 55 27 92 65 116 120 8 19 12 100 12 261 0 263 6 246 -80 246
-85 0 -80 14 -80 -222 0 -227 -5 -253 -55 -276 -68 -31 -144 10 -146 80 -1 18
-2 119 -3 223 l-1 190 -70 3 c-46 2 -74 -1 -83 -10z"/>
</g>
</svg>
