<?xml version="1.0" standalone="no"?>
<!DOCTYPE svg PUBLIC "-//W3C//DTD SVG 20010904//EN"
 "http://www.w3.org/TR/2001/REC-SVG-20010904/DTD/svg10.dtd">
<svg version="1.0" xmlns="http://www.w3.org/2000/svg"
 width="1024.000000pt" height="1024.000000pt" viewBox="0 0 1024.000000 1024.000000"
 preserveAspectRatio="xMidYMid meet">

<g transform="translate(0.000000,1024.000000) scale(0.100000,-0.100000)"
fill="#000000" stroke="none">
<path d="M4585 7039 c-275 -93 -510 -173 -522 -179 -28 -12 -29 -26 -4 -39 17
-10 428 -131 443 -131 3 0 9 18 13 40 9 52 40 81 130 125 282 136 775 119
1015 -35 53 -34 60 -45 60 -95 0 -19 4 -36 9 -39 5 -3 61 10 124 29 64 19 118
35 121 35 12 0 5 -132 -8 -158 -9 -17 -15 -65 -16 -127 -3 -136 -4 -133 30
-150 43 -22 77 -19 107 11 25 25 25 29 21 124 -4 79 -9 103 -26 128 -18 25
-22 44 -22 115 l0 85 67 23 c38 14 69 31 71 39 2 11 -122 57 -526 193 -290 97
-541 177 -558 176 -16 0 -254 -76 -529 -170z"/>
<path d="M4965 6840 c-159 -23 -299 -72 -335 -117 -13 -17 -17 -34 -14 -52 5
-25 -1 -33 -53 -74 -127 -101 -220 -275 -238 -449 -4 -38 -11 -68 -16 -68 -4
0 -85 38 -178 85 -94 47 -174 85 -179 85 -4 0 -126 -42 -272 -94 l-265 -93 -3
-681 -2 -680 -34 -51 c-51 -76 -59 -167 -22 -241 l14 -30 -47 0 c-59 0 -91
-21 -91 -60 0 -65 -144 -60 1892 -60 1835 0 1848 0 1868 20 48 48 10 100 -72
100 l-49 0 15 28 c39 75 32 167 -19 241 l-35 50 -2 682 -3 681 -269 95 -270
94 -70 -31 c-39 -17 -104 -48 -145 -69 l-73 -37 -1 -140 -1 -139 -3 133 c-2
72 -6 132 -9 132 -11 0 -49 -23 -56 -34 -5 -7 -8 -7 -8 -1 0 6 -5 48 -11 94
-20 166 -108 330 -228 427 -55 44 -61 53 -61 87 0 28 -7 44 -26 62 -30 28
-140 69 -239 90 -86 18 -309 27 -390 15z m-254 -349 c30 -17 90 -40 134 -53
71 -21 101 -23 275 -23 173 0 204 3 275 23 44 13 104 36 133 53 l53 30 34 -27
c64 -49 140 -171 173 -278 21 -72 21 -225 -2 -301 -38 -130 -83 -203 -185
-305 -138 -138 -258 -195 -434 -207 -128 -8 -234 14 -357 74 -79 39 -109 61
-181 133 -70 69 -94 102 -128 172 -54 111 -75 208 -68 313 7 91 37 199 75 265
25 44 128 160 142 160 3 0 31 -13 61 -29z m1216 -483 c-3 -7 -5 -2 -5 12 0 14
2 19 5 13 2 -7 2 -19 0 -25z m743 -22 c0 -2 -7 -7 -16 -10 -8 -3 -12 -2 -9 4
6 10 25 14 25 6z m-753 -38 c-3 -8 -6 -5 -6 6 -1 11 2 17 5 13 3 -3 4 -12 1
-19z m-10 -70 c-3 -8 -6 -5 -6 6 -1 11 2 17 5 13 3 -3 4 -12 1 -19z m21 -738
l2 -125 -32 -16 c-17 -8 -45 -32 -62 -52 -25 -31 -31 -49 -34 -102 -4 -55 -1
-70 21 -108 14 -24 41 -52 62 -63 36 -19 50 -46 43 -81 -3 -17 -36 -18 -808
-18 l-805 0 -3 36 c-3 34 1 40 40 66 114 75 115 243 2 312 l-43 26 -1 128 0
127 808 -2 807 -3 3 -125z m679 -147 c-3 -10 -5 -2 -5 17 0 19 2 27 5 18 2
-10 2 -26 0 -35z m-2300 -117 c6 -6 12 -20 13 -31 7 -71 -49 -97 -117 -55 -37
22 -42 49 -15 73 39 35 90 41 119 13z m1725 -2 c40 -21 43 -33 13 -64 -53 -56
-135 -44 -135 18 0 66 47 84 122 46z m107 -167 c-2 -1 -13 -9 -24 -17 -19 -14
-19 -14 -6 3 7 9 18 17 24 17 6 0 8 -1 6 -3z m-76 -72 c-3 -9 -8 -14 -10 -11
-3 3 -2 9 2 15 9 16 15 13 8 -4z m2 -95 c3 -6 -1 -7 -9 -4 -18 7 -21 14 -7 14
6 0 13 -4 16 -10z m42 -112 c-3 -8 -6 -5 -6 6 -1 11 2 17 5 13 3 -3 4 -12 1
-19z"/>
<path d="M4750 6357 c-136 -38 -230 -170 -217 -307 8 -95 62 -175 144 -216 56
-28 174 -26 230 4 93 49 152 136 160 237 10 117 -39 208 -137 257 -68 33 -122
41 -180 25z m206 -221 c19 -14 18 -15 -6 -41 -44 -47 -141 -87 -212 -88 -75
-2 -116 16 -96 40 27 34 204 99 274 102 11 1 29 -5 40 -13z"/>
<path d="M5320 6339 c-99 -44 -154 -132 -154 -244 0 -81 23 -136 83 -198 50
-53 104 -79 178 -85 56 -4 70 -1 129 28 174 86 202 305 57 447 -75 72 -200 94
-293 52z m121 -215 c61 -18 144 -58 154 -74 20 -32 -58 -54 -138 -39 -86 16
-187 77 -187 114 0 21 98 20 171 -1z"/>
<path d="M4950 5661 l-25 -7 45 -46 c73 -74 165 -86 256 -33 42 25 81 72 69
83 -10 10 -315 12 -345 3z"/>
<path d="M6683 4073 l-23 -4 -2 -417 -3 -417 -170 0 -170 0 -3 418 -2 417 -95
0 -95 0 0 -464 0 -464 62 -56 61 -56 243 0 243 0 60 58 60 57 4 452 c2 249 1
457 -3 463 -7 11 -130 21 -167 13z"/>
<path d="M3448 4019 l-58 -51 0 -211 0 -212 59 -52 59 -53 211 0 211 0 0 -106
0 -106 -252 2 c-139 2 -261 2 -271 1 -16 -1 -17 -11 -15 -98 l3 -98 302 -3
302 -2 61 57 60 58 1 200 1 199 -55 53 -55 53 -216 0 -216 0 0 110 0 110 273
2 272 3 0 95 0 95 -310 2 -310 3 -57 -51z"/>
<path d="M4358 4012 l-55 -57 -2 -368 c-1 -201 1 -386 5 -409 6 -36 17 -52 65
-95 l59 -53 241 0 240 0 57 53 c31 28 60 57 64 62 5 6 7 120 5 255 l-2 245
-164 3 c-112 2 -168 -1 -177 -9 -18 -15 -20 -169 -2 -187 7 -7 42 -12 85 -12
l73 0 0 -105 0 -105 -175 0 -175 0 0 320 0 320 270 0 270 0 0 100 0 100 -313
0 -314 0 -55 -58z"/>
<path d="M5217 4058 c-6 -17 2 -1009 9 -1020 7 -10 155 -10 171 0 9 6 13 63
15 205 l3 197 206 2 207 3 58 51 59 51 3 210 2 211 -59 51 -59 51 -305 0
c-235 0 -306 -3 -310 -12z m543 -298 l0 -110 -175 0 -175 0 0 110 0 110 175 0
175 0 0 -110z"/>
</g>
</svg>
